# xmcd CD database file
#
# Track frame offsets:
#	150
#	21202
#	36135
#	56480
#	77530
#
# Disc length: 1241 seconds
#
# Revision: 0
# Processed by: cddbd v1.5PL3 Copyright (c) Steve Scherf et al.
# Submitted via: CDex 1.50beta9
#
DISCID=3104d705
DTITLE=Hideki Kaji - Eggstone
DYEAR=1997
DGENRE=Pop
TTITLE0=たまごの中の欲望
TTITLE1=ささやかだけれど、役にたつこと-Acoustic Version-
TTITLE2=たまごの中の欲望-Tore Johansson Remix-
TTITLE3=たまごの中の欲望 -Instrumental-
TTITLE4=君のハートのナチュラル -Karaoke-
EXTD=YEAR: 1997
EXTT0=
EXTT1=
EXTT2=
EXTT3=
EXTT4=
PLAYORDER=
